<?xml version="1.0" standalone="no"?>
<!DOCTYPE svg PUBLIC "-//W3C//DTD SVG 20010904//EN"
 "http://www.w3.org/TR/2001/REC-SVG-20010904/DTD/svg10.dtd">
<svg version="1.0" xmlns="http://www.w3.org/2000/svg"
 width="700.000000pt" height="700.000000pt" viewBox="0 0 700.000000 700.000000"
 preserveAspectRatio="xMidYMid meet">
<metadata>
Created by potrace 1.11, written by Peter Selinger 2001-2013
</metadata>
<g transform="translate(0.000000,700.000000) scale(0.100000,-0.100000)"
fill="#000000" stroke="none">
<path d="M4026 6683 c3 -16 8 -35 10 -43 45 -140 64 -518 35 -695 -18 -108
-18 -107 -41 -198 -61 -233 -185 -470 -363 -689 -92 -115 -550 -566 -861 -849
-472 -430 -720 -709 -839 -944 -137 -273 -180 -644 -107 -929 58 -229 165
-397 360 -566 110 -96 365 -221 499 -245 14 -2 47 -9 73 -13 26 -5 49 -8 51
-6 2 2 -29 37 -68 76 -91 93 -155 177 -205 271 -40 73 -93 197 -85 197 3 0 0
11 -5 25 -24 62 -30 200 -14 297 42 244 214 485 513 721 226 178 356 281 361
287 3 3 48 41 100 85 370 312 650 603 836 870 202 289 331 588 359 828 3 25 8
56 11 68 5 27 5 224 0 284 -28 292 -158 603 -376 900 -63 86 -238 295 -246
295 -3 0 -2 -12 2 -27z"/>
<path d="M4830 4815 c-41 -13 -99 -39 -129 -57 -49 -31 -58 -42 -115 -153
-111 -214 -253 -420 -430 -625 -59 -67 -349 -354 -441 -436 -143 -127 -398
-335 -636 -519 -210 -161 -358 -326 -433 -482 -28 -59 -38 -84 -52 -138 -36
-143 -19 -296 52 -444 34 -73 118 -201 132 -201 4 0 39 -7 79 -15 178 -37 375
-13 513 63 221 122 206 309 -36 428 -40 20 -74 38 -74 39 0 2 27 -5 60 -16
147 -46 412 -58 545 -26 160 38 260 128 290 261 50 222 -102 401 -415 486
l-65 18 90 2 c88 1 124 3 255 15 182 15 392 65 518 122 174 79 257 178 266
317 3 34 -22 144 -40 179 -22 42 -69 84 -121 107 -44 19 -164 48 -223 52 -29
3 -23 6 34 16 313 59 584 287 679 572 56 167 38 337 -42 408 -63 56 -146 64
-261 27z"/>
<path d="M542 832 c-30 -23 -40 -83 -18 -116 29 -46 123 -44 141 2 10 26 -11
36 -28 12 -19 -27 -61 -35 -81 -14 -25 25 -21 81 9 100 23 15 65 12 65 -6 0
-12 29 -20 35 -10 3 5 -3 18 -15 30 -25 25 -77 26 -108 2z"/>
<path d="M1093 843 c-7 -3 -13 -11 -13 -18 0 -7 -6 -16 -12 -19 -10 -5 -10 -7
0 -12 6 -3 12 -23 12 -44 0 -21 3 -45 6 -54 7 -17 54 -22 54 -6 0 6 -7 10 -15
10 -11 0 -15 12 -15 45 0 33 4 45 15 45 8 0 15 5 15 10 0 6 -6 10 -14 10 -8 0
-16 8 -18 18 -2 11 -9 17 -15 15z"/>
<path d="M1400 818 c0 -25 -3 -29 -12 -20 -18 18 -53 15 -71 -6 -23 -25 -21
-68 3 -92 22 -22 66 -27 73 -7 4 10 6 10 6 0 1 -7 8 -13 16 -13 12 0 15 16 15
85 0 69 -3 85 -15 85 -10 0 -15 -10 -15 -32z m-10 -47 c15 -30 12 -49 -11 -61
-25 -14 -49 2 -49 34 0 43 41 61 60 27z"/>
<path d="M1530 767 l0 -84 49 -1 c55 -1 68 8 77 55 8 43 -26 78 -67 69 -26 -5
-29 -3 -29 19 0 16 -6 25 -15 25 -12 0 -15 -16 -15 -83z m88 11 c30 -30 -2
-93 -36 -71 -21 13 -27 50 -12 69 15 17 32 18 48 2z"/>
<path d="M1890 765 l0 -85 50 0 c65 0 100 30 100 85 0 55 -35 85 -100 85 l-50
0 0 -85z m112 43 c4 -7 8 -27 8 -45 0 -36 -29 -63 -67 -63 -24 0 -25 2 -25 85
0 19 1 37 1 40 2 10 75 -5 83 -17z"/>
<path d="M2420 765 c0 -69 3 -85 15 -85 11 0 15 11 15 40 l0 40 40 0 c22 0 40
5 40 10 0 10 -27 14 -62 11 -13 -2 -18 5 -18 24 0 23 4 26 28 25 49 -4 72 0
72 10 0 6 -28 10 -65 10 l-65 0 0 -85z"/>
<path d="M3080 840 c0 -5 7 -10 15 -10 8 0 15 5 15 10 0 6 -7 10 -15 10 -8 0
-15 -4 -15 -10z"/>
<path d="M3340 765 c0 -69 3 -85 15 -85 11 0 15 11 15 36 0 35 1 35 37 32 33
-3 39 -7 43 -33 3 -17 12 -31 22 -33 14 -3 15 2 8 31 -4 19 -10 39 -14 45 -3
6 -2 13 4 17 15 9 12 41 -6 59 -10 11 -34 16 -70 16 l-54 0 0 -85z m98 56 c8
-5 12 -17 10 -27 -2 -14 -13 -20 -41 -22 -35 -3 -37 -2 -37 27 0 27 3 31 28
31 15 0 33 -4 40 -9z"/>
<path d="M690 744 c0 -50 3 -64 15 -64 11 0 15 12 15 44 0 37 5 48 27 64 l26
19 -41 0 -42 0 0 -63z"/>
<path d="M790 790 c-11 -11 -20 -31 -20 -45 0 -53 69 -85 105 -49 22 22 11 30
-20 14 -20 -11 -27 -11 -40 0 -26 22 -16 31 30 27 41 -3 45 -2 45 18 0 49 -64
71 -100 35z m68 -17 c2 -9 -7 -13 -28 -13 -28 0 -31 2 -20 15 15 18 41 16 48
-2z"/>
<path d="M929 790 c-23 -19 -23 -19 -3 -20 11 0 25 5 31 11 13 13 43 5 43 -10
0 -5 -18 -12 -40 -16 -27 -4 -41 -13 -45 -26 -11 -33 11 -48 69 -46 l53 1 -5
51 c-2 27 -9 56 -14 63 -15 18 -63 15 -89 -8z m71 -64 c0 -18 -39 -31 -52 -18
-15 15 0 32 28 32 14 0 24 -6 24 -14z"/>
<path d="M1180 790 c-11 -11 -20 -31 -20 -45 0 -52 69 -85 104 -49 25 24 9 35
-24 16 -27 -15 -32 -15 -40 -2 -13 21 -12 31 3 29 6 -1 29 -1 49 0 31 1 36 4
31 19 -19 52 -67 68 -103 32z m68 -18 c2 -8 -8 -12 -27 -12 -29 0 -39 9 -25
23 10 10 47 2 52 -11z"/>
<path d="M1675 793 c4 -10 15 -42 25 -70 19 -52 19 -53 -1 -63 -24 -14 -25
-30 0 -30 25 0 35 14 65 94 30 79 31 86 12 86 -12 0 -23 -23 -32 -68 -4 -23
-13 -26 -20 -6 -18 57 -28 74 -41 74 -10 0 -13 -6 -8 -17z"/>
<path d="M2080 790 c-11 -11 -20 -31 -20 -45 0 -52 69 -85 104 -49 23 23 8 39
-16 18 -14 -14 -23 -16 -35 -8 -32 20 -27 36 8 34 61 -4 69 -1 62 18 -19 52
-67 68 -103 32z m66 -15 c18 -13 17 -14 -18 -15 -37 0 -51 13 -25 23 19 8 22
8 43 -8z"/>
<path d="M2200 744 c0 -50 3 -64 15 -64 11 0 15 12 15 49 0 35 4 51 16 55 26
10 34 -3 34 -55 0 -37 4 -49 15 -49 11 0 15 13 15 54 0 63 -10 74 -67 73 l-43
0 0 -63z"/>
<path d="M2560 744 c0 -49 3 -64 14 -64 11 0 16 14 18 48 2 38 7 49 26 57 33
15 27 22 -18 22 l-40 0 0 -63z"/>
<path d="M2668 803 c-9 -2 -19 -11 -22 -20 -5 -12 -2 -14 16 -8 39 12 63 11
63 -4 0 -8 -12 -15 -29 -17 -40 -4 -64 -29 -50 -52 8 -12 26 -17 66 -18 l55
-1 -5 46 c-8 78 -26 92 -94 74z m50 -94 c-19 -13 -43 -6 -43 11 0 20 49 31 53
12 2 -8 -2 -19 -10 -23z"/>
<path d="M2790 745 c0 -48 3 -65 14 -65 9 0 14 14 14 47 1 44 15 66 37 60 6
-2 11 -27 13 -55 2 -38 7 -52 18 -52 12 0 14 12 12 56 -3 66 -23 88 -58 66
-12 -7 -20 -8 -20 -2 0 5 -7 10 -15 10 -12 0 -15 -14 -15 -65z"/>
<path d="M2950 790 c-39 -39 -11 -110 43 -110 22 0 57 27 57 43 0 14 -23 7
-36 -10 -18 -25 -49 -5 -49 32 0 38 28 55 53 31 15 -13 22 -14 28 -5 9 15 -22
39 -53 39 -13 0 -32 -9 -43 -20z"/>
<path d="M3080 745 c0 -51 3 -65 15 -65 12 0 15 14 15 65 0 51 -3 65 -15 65
-12 0 -15 -14 -15 -65z"/>
<path d="M3139 794 c-18 -22 -1 -46 39 -56 18 -5 32 -13 32 -19 0 -18 -28 -21
-54 -4 -21 14 -26 15 -26 3 0 -34 50 -50 91 -28 21 12 26 48 7 55 -67 23 -71
26 -59 38 9 9 16 9 31 -1 25 -15 30 -15 30 2 0 28 -69 36 -91 10z"/>
<path d="M3515 790 c-18 -19 -17 -20 3 -20 12 0 22 5 22 10 0 13 37 13 45 -1
9 -13 3 -19 -24 -24 -47 -9 -61 -17 -61 -34 0 -29 21 -39 76 -38 l51 1 -5 50
c-2 30 -11 56 -20 64 -24 18 -67 15 -87 -8z m75 -64 c0 -19 -39 -31 -53 -17
-9 9 -8 14 3 21 22 14 50 12 50 -4z"/>
<path d="M3650 744 c0 -51 3 -64 15 -64 11 0 15 9 14 33 -3 46 10 79 29 75 13
-2 18 -16 20 -56 2 -38 7 -52 18 -52 11 0 14 11 13 45 -3 50 9 69 34 59 13 -5
17 -19 17 -55 0 -38 4 -49 15 -49 13 0 15 10 14 48 -1 26 -6 55 -11 65 -9 19
-53 23 -63 7 -4 -7 -11 -8 -18 -2 -7 5 -31 10 -54 9 l-43 0 0 -63z"/>
<path d="M3880 790 c-40 -40 -11 -110 45 -110 32 0 65 33 65 65 0 32 -33 65
-65 65 -14 0 -34 -9 -45 -20z m68 -12 c30 -30 -2 -93 -36 -71 -21 13 -27 50
-12 69 15 17 32 18 48 2z"/>
<path d="M4019 794 c-18 -22 -1 -46 40 -57 18 -4 31 -13 28 -20 -5 -16 -27
-16 -54 1 -21 13 -23 13 -23 -6 0 -16 8 -23 34 -27 76 -15 108 52 33 70 -34 9
-44 23 -21 32 10 4 19 2 22 -5 4 -13 32 -17 32 -4 0 31 -68 43 -91 16z"/>
<path d="M533 573 c-4 -10 -11 -22 -17 -26 -8 -6 -7 -10 2 -14 7 -3 12 -25 12
-59 0 -41 4 -54 15 -54 11 0 15 13 15 54 0 34 5 56 13 59 9 4 8 8 -3 16 -12 9
-12 11 3 17 9 3 14 10 11 15 -9 16 -44 10 -51 -8z"/>
<path d="M1120 505 c0 -69 3 -85 15 -85 12 0 15 14 15 62 l0 61 40 -61 c56
-88 70 -83 70 23 0 69 -3 85 -15 85 -12 0 -15 -14 -15 -62 l0 -61 -40 61 c-56
88 -70 83 -70 -23z"/>
<path d="M1800 505 c0 -69 3 -85 15 -85 10 0 15 11 15 35 0 35 0 35 45 35 50
0 72 23 59 63 -10 31 -22 37 -81 37 l-53 0 0 -85z m88 59 c17 -3 22 -10 20
-27 -2 -18 -11 -23 -40 -25 -36 -3 -38 -2 -38 26 0 30 12 35 58 26z"/>
<path d="M2200 580 c0 -5 7 -10 15 -10 8 0 15 5 15 10 0 6 -7 10 -15 10 -8 0
-15 -4 -15 -10z"/>
<path d="M2563 583 c-7 -3 -13 -11 -13 -18 0 -7 -6 -16 -12 -18 -10 -4 -10 -7
-1 -14 6 -5 13 -31 15 -58 3 -46 5 -50 31 -53 29 -4 37 12 12 22 -10 3 -15 19
-15 46 0 29 4 40 15 40 8 0 15 5 15 10 0 6 -6 10 -14 10 -8 0 -16 8 -18 18 -2
11 -9 17 -15 15z"/>
<path d="M600 484 c0 -49 3 -64 14 -64 11 0 16 14 18 47 2 38 8 50 26 59 28
14 19 21 -25 22 l-33 1 0 -65z"/>
<path d="M700 530 c-11 -11 -20 -31 -20 -45 0 -14 9 -34 20 -45 11 -11 31 -20
45 -20 14 0 34 9 45 20 11 11 20 31 20 45 0 14 -9 34 -20 45 -11 11 -31 20
-45 20 -14 0 -34 -9 -45 -20z m70 -14 c28 -34 -11 -94 -44 -67 -21 18 -20 57
2 70 23 14 28 13 42 -3z"/>
<path d="M830 485 c0 -51 3 -65 15 -65 11 0 15 12 15 49 0 35 4 51 16 55 26
10 34 -3 34 -55 0 -37 4 -49 15 -49 11 0 15 12 15 49 0 35 4 51 16 55 26 10
34 -3 34 -55 0 -37 4 -49 15 -49 19 0 21 100 3 118 -14 14 -54 16 -63 2 -4 -6
-13 -5 -25 3 -16 9 -24 9 -40 -1 -12 -7 -20 -8 -20 -2 0 5 -7 10 -15 10 -12 0
-15 -14 -15 -65z"/>
<path d="M1310 530 c-11 -11 -20 -31 -20 -45 0 -14 9 -34 20 -45 11 -11 31
-20 45 -20 14 0 34 9 45 20 11 11 20 31 20 45 0 14 -9 34 -20 45 -11 11 -31
20 -45 20 -14 0 -34 -9 -45 -20z m68 -12 c30 -30 -2 -93 -36 -71 -21 13 -27
50 -12 69 15 17 32 18 48 2z"/>
<path d="M1440 504 c0 -68 11 -82 65 -82 l45 1 0 64 c0 49 -3 63 -15 63 -10 0
-14 -12 -13 -46 0 -29 -4 -49 -13 -55 -25 -16 -34 -3 -37 49 -2 37 -7 52 -18
52 -10 0 -14 -12 -14 -46z"/>
<path d="M1580 485 c0 -51 3 -65 15 -65 11 0 15 12 15 49 0 35 4 51 16 55 26
10 34 -3 34 -55 0 -38 4 -49 15 -49 13 0 15 11 13 56 -3 66 -23 88 -58 66 -12
-7 -20 -8 -20 -2 0 5 -7 10 -15 10 -12 0 -15 -14 -15 -65z"/>
<path d="M1960 484 c0 -49 3 -64 14 -64 11 0 16 14 18 47 2 39 7 50 28 60 14
7 23 13 20 14 -3 1 -22 3 -42 4 l-38 4 0 -65z"/>
<path d="M2080 543 c-63 -23 -43 -123 25 -123 14 0 34 9 45 20 50 50 -2 127
-70 103z m48 -25 c32 -32 1 -89 -37 -68 -26 13 -28 55 -3 69 22 13 26 13 40
-1z"/>
<path d="M2200 471 c0 -54 -4 -81 -12 -84 -7 -2 -9 -8 -5 -13 4 -4 16 -3 25 2
24 16 31 174 7 174 -12 0 -15 -15 -15 -79z"/>
<path d="M2270 530 c-11 -11 -20 -31 -20 -45 0 -53 69 -85 105 -49 22 22 11
30 -20 14 -20 -11 -27 -11 -40 0 -25 21 -17 29 27 27 34 -2 43 2 46 16 5 25
-26 57 -55 57 -12 0 -32 -9 -43 -20z m68 -17 c2 -9 -7 -13 -27 -13 -31 0 -42
14 -18 23 19 8 40 3 45 -10z"/>
<path d="M2410 530 c-41 -41 -13 -110 46 -110 19 0 54 28 54 43 0 13 -23 7
-35 -9 -18 -26 -57 -1 -53 33 4 34 35 54 51 33 16 -20 37 -23 37 -5 0 35 -69
46 -100 15z"/>
</g>
</svg>
